Normalized EMG Linear Envelopes
nRows=110
nColumns=4

endheader
time	 med_gas_r	  soleus_r	 tib_ant_r	
3.75	  0.007423	  0.006706	  0.001921	
3.8125	  0.007577	  0.007124	  0.001879	
3.875	  0.007792	  0.007282	  0.001821	
3.9375	  0.007974	  0.007285	  0.001765	
4	  0.007887	  0.007100	  0.001763	
4.0625	  0.007692	  0.006756	  0.001807	
4.125	  0.007550	  0.006353	  0.001856	
4.1875	  0.007674	  0.006061	  0.001873	
4.25	  0.008249	  0.005959	  0.001863	
4.3125	  0.008855	  0.006121	  0.001848	
4.375	  0.008788	  0.006490	  0.001849	
4.4375	  0.008029	  0.006864	  0.001854	
4.5	  0.007248	  0.007148	  0.001851	
4.5625	  0.006931	  0.007368	  0.001836	
4.625	  0.007082	  0.007347	  0.001744	
4.6875	  0.007392	  0.006570	  0.001446	
4.75	  0.007391	  0.004225	  0.000858	
4.8125	  0.006510	 -0.000425	  0.000073	
4.875	  0.004932	 -0.007082	 -0.000472	
4.9375	  0.003595	 -0.012796	  0.000220	
5	  0.004632	 -0.009594	  0.003880	
5.0625	  0.011670	  0.017417	  0.012633	
5.125	  0.028916	  0.087670	  0.027544	
5.1875	  0.058387	  0.213829	  0.045672	
5.25	  0.096897	  0.380120	  0.060222	
5.3125	  0.138025	  0.532345	  0.068249	
5.375	  0.178817	  0.620476	  0.071068	
5.4375	  0.223801	  0.664876	  0.070637	
5.5	  0.269145	  0.676977	  0.068547	
5.5625	  0.312961	  0.694045	  0.066256	
5.625	  0.339136	  0.728335	  0.064568	
5.6875	  0.339255	  0.735446	  0.062116	
5.75	  0.310607	  0.660175	  0.057443	
5.8125	  0.267143	  0.524370	  0.051831	
5.875	  0.224155	  0.408838	  0.046601	
5.9375	  0.201915	  0.361320	  0.042132	
6	  0.201403	  0.370711	  0.039421	
6.0625	  0.211678	  0.418129	  0.038604	
6.125	  0.227705	  0.482725	  0.039659	
6.1875	  0.236662	  0.523269	  0.041334	
6.25	  0.231842	  0.513912	  0.042104	
6.3125	  0.214224	  0.474951	  0.041917	
6.375	  0.197575	  0.431640	  0.041678	
6.4375	  0.183258	  0.391497	  0.040555	
6.5	  0.163941	  0.333797	  0.037697	
6.5625	  0.134719	  0.263510	  0.033048	
6.625	  0.100478	  0.210217	  0.028261	
6.6875	  0.068988	  0.175500	  0.025012	
6.75	  0.050595	  0.154973	  0.023240	
6.8125	  0.046437	  0.148657	  0.022050	
6.875	  0.052082	  0.154222	  0.021575	
6.9375	  0.061218	  0.165393	  0.021647	
7	  0.069011	  0.181798	  0.022598	
7.0625	  0.075524	  0.200571	  0.024539	
7.125	  0.080450	  0.214689	  0.026303	
7.1875	  0.086045	  0.221429	  0.026978	
7.25	  0.092218	  0.221268	  0.027224	
7.3125	  0.098263	  0.217257	  0.027379	
7.375	  0.101369	  0.215884	  0.027788	
7.4375	  0.097194	  0.212138	  0.028093	
7.5	  0.091882	  0.206159	  0.028125	
7.5625	  0.086581	  0.193645	  0.027417	
7.625	  0.081984	  0.176184	  0.025931	
7.6875	  0.077159	  0.164214	  0.024388	
7.75	  0.072436	  0.162626	  0.023368	
7.8125	  0.072200	  0.175526	  0.022950	
7.875	  0.073712	  0.193607	  0.022237	
7.9375	  0.076964	  0.196455	  0.021380	
8	  0.079556	  0.192091	  0.021268	
8.0625	  0.082341	  0.202279	  0.023115	
8.125	  0.095776	  0.233765	  0.027139	
8.1875	  0.123532	  0.280036	  0.033025	
8.25	  0.161540	  0.331787	  0.039955	
8.3125	  0.199008	  0.380409	  0.046182	
8.375	  0.232326	  0.424687	  0.051629	
8.4375	  0.264363	  0.469895	  0.057597	
8.5	  0.292947	  0.496824	  0.064278	
8.5625	  0.312143	  0.502200	  0.069891	
8.625	  0.319674	  0.485547	  0.071058	
8.6875	  0.323613	  0.467167	  0.067378	
8.75	  0.326041	  0.456012	  0.061508	
8.8125	  0.323413	  0.443378	  0.056303	
8.875	  0.312871	  0.415203	  0.052177	
8.9375	  0.299711	  0.381955	  0.049406	
9	  0.290503	  0.358654	  0.047522	
9.0625	  0.284337	  0.347474	  0.045952	
9.125	  0.286063	  0.350135	  0.045682	
9.1875	  0.297345	  0.367444	  0.047001	
9.25	  0.322275	  0.391064	  0.049276	
9.3125	  0.351927	  0.420704	  0.053681	
9.375	  0.380418	  0.473340	  0.060444	
9.4375	  0.405373	  0.544290	  0.068076	
9.5	  0.412764	  0.584434	  0.072204	
9.5625	  0.392189	  0.563365	  0.070032	
9.625	  0.343420	  0.481395	  0.060454	
9.6875	  0.273556	  0.387251	  0.045989	
9.75	  0.200946	  0.314136	  0.031974	
9.8125	  0.138389	  0.274772	  0.021866	
9.875	  0.089597	  0.264390	  0.015227	
9.9375	  0.056509	  0.273464	  0.010750	
10	  0.036724	  0.286659	  0.008082	
10.0625	  0.025380	  0.287463	  0.006768	
10.125	  0.018214	  0.273310	  0.006190	
10.1875	  0.014371	  0.250418	  0.006000	
10.25	  0.012955	  0.234987	  0.005807	
10.3125	  0.012950	  0.235875	  0.005741	
10.375	  0.013709	  0.236419	  0.006464	
10.4375	  0.014286	  0.222133	  0.008090	
10.5	  0.014343	  0.196605	  0.010237	
10.5625	  0.014264	  0.168947	  0.012435	
